<svg width="35" height="35" viewBox="0 0 35 35" fill="none" xmlns="http://www.w3.org/2000/svg">
<path d="M21.9814 2.91699H13.0338C4.86107 2.91699 2.91666 4.8614 2.91666 13.019V21.9665C2.91666 30.1392 4.84594 32.0837 13.0186 32.0837H21.9661C30.1389 32.0837 32.0833 30.1544 32.0833 21.9816V13.0342C32.0833 4.8614 30.154 2.91699 21.9814 2.91699ZM26.4626 23.7286H24.3359C23.5308 23.7286 23.2877 23.0754 21.8446 21.6322C20.5837 20.417 20.0521 20.265 19.7331 20.265C19.2926 20.265 19.171 20.3866 19.171 20.9942V22.9083C19.171 23.4248 19.0039 23.7286 17.6519 23.7286C16.34 23.6404 15.0678 23.2419 13.94 22.5658C12.8123 21.8897 11.8613 20.9553 11.1654 19.8397C9.51322 17.7833 8.36369 15.3698 7.80818 12.7911C7.80818 12.4721 7.92968 12.1834 8.53735 12.1834H10.6641C11.2109 12.1834 11.4084 12.4265 11.6211 12.9886C12.654 16.0268 14.4163 18.67 15.1302 18.67C15.4036 18.67 15.5251 18.5485 15.5251 17.8649V14.7355C15.434 13.3076 14.6745 13.186 14.6745 12.6696C14.6845 12.5333 14.7472 12.4063 14.8493 12.3156C14.9514 12.2248 15.0849 12.1774 15.2213 12.1834H18.5634C19.0191 12.1834 19.171 12.4113 19.171 12.9582V17.1813C19.171 17.637 19.3685 17.7889 19.5052 17.7889C19.7786 17.7889 19.9913 17.637 20.4926 17.1357C21.5698 15.822 22.45 14.3585 23.1055 12.7911C23.1724 12.6025 23.2992 12.441 23.4665 12.3313C23.6338 12.2215 23.8325 12.1696 24.0321 12.1834H26.1588C26.7969 12.1834 26.9336 12.5024 26.7969 12.9582C26.023 14.6911 25.0656 16.3361 23.941 17.8649C23.7131 18.2143 23.622 18.3966 23.941 18.8067C24.1536 19.1257 24.898 19.7485 25.3993 20.341C26.1285 21.0683 26.7339 21.9098 27.1918 22.8324C27.3741 23.4248 27.0703 23.7286 26.4626 23.7286Z" fill="white"/>
</svg>
