<svg width="31" height="31" viewBox="0 0 31 31" fill="none" xmlns="http://www.w3.org/2000/svg">
<path d="M0.922509 30.0837L2.89418 22.8387C1.595 20.6116 0.912441 18.0786 0.916676 15.5003C0.916676 7.44595 7.44563 0.916992 15.5 0.916992C23.5544 0.916992 30.0833 7.44595 30.0833 15.5003C30.0833 23.5547 23.5544 30.0837 15.5 30.0837C12.9228 30.0878 10.391 29.4058 8.16459 28.1076L0.922509 30.0837ZM10.2369 8.65783C10.0486 8.66952 9.86453 8.71912 9.69584 8.80366C9.53765 8.89324 9.39323 9.00524 9.26709 9.13616C9.09209 9.30095 8.99293 9.44387 8.88647 9.58241C8.34748 10.2839 8.05757 11.1449 8.06251 12.0295C8.06543 12.7441 8.25209 13.4397 8.54376 14.0901C9.14022 15.4055 10.1217 16.7982 11.4181 18.0889C11.7302 18.3995 12.035 18.7116 12.3631 19.0018C13.9722 20.4185 15.8898 21.4402 17.9631 21.9855L18.7929 22.1124C19.0627 22.127 19.3325 22.1066 19.6038 22.0935C20.0285 22.0715 20.4432 21.9565 20.8186 21.7566C21.0606 21.6282 21.1744 21.5641 21.3771 21.4357C21.3771 21.4357 21.4398 21.3949 21.5594 21.3045C21.7563 21.1587 21.8773 21.0551 22.0406 20.8845C22.1617 20.7591 22.2667 20.6118 22.3469 20.4441C22.4606 20.2064 22.5744 19.7528 22.621 19.3751C22.6561 19.0864 22.6458 18.9289 22.6415 18.8312C22.6356 18.6751 22.5058 18.5132 22.3644 18.4447L21.5156 18.0641C21.5156 18.0641 20.2469 17.5114 19.4725 17.1585C19.3909 17.1229 19.3034 17.1026 19.2144 17.0987C19.1146 17.0884 19.0138 17.0996 18.9187 17.1316C18.8236 17.1635 18.7365 17.2155 18.6631 17.2839V17.281C18.6558 17.281 18.5581 17.3641 17.5038 18.6416C17.4432 18.7229 17.3599 18.7844 17.2643 18.8181C17.1687 18.8519 17.0653 18.8564 16.9671 18.8312C16.8721 18.8058 16.779 18.7736 16.6886 18.7349C16.5077 18.6591 16.445 18.6299 16.3211 18.576L16.3138 18.573C15.4795 18.2088 14.707 17.7168 14.0242 17.1147C13.8404 16.9543 13.6698 16.7793 13.4948 16.6101C12.9211 16.0607 12.4211 15.4391 12.0073 14.761L11.9213 14.6224C11.8595 14.5293 11.8095 14.4289 11.7725 14.3235C11.7171 14.1091 11.8615 13.937 11.8615 13.937C11.8615 13.937 12.2158 13.5491 12.3806 13.3391C12.5178 13.1645 12.6459 12.983 12.7642 12.7951C12.9363 12.518 12.9902 12.2337 12.8998 12.0135C12.4915 11.016 12.0686 10.0228 11.634 9.03699C11.5479 8.84158 11.2927 8.70158 11.0608 8.67387C10.9821 8.66512 10.9033 8.65637 10.8246 8.65053C10.6287 8.6408 10.4325 8.64275 10.2369 8.65637V8.65783Z" fill="white"/>
</svg>
