<svg width="32" height="32" viewBox="0 0 32 32" fill="none" xmlns="http://www.w3.org/2000/svg">
<path d="M4.1088 0.000976562H27.8931C30.1527 0.000976562 32 1.84887 32 4.1085V27.8928C32 30.1518 30.1527 31.9984 27.8931 31.9984H4.1088C1.84917 31.9984 0 30.1517 0 27.8928V4.1085C0 1.84887 1.84917 0.000976562 4.1088 0.000976562ZM23.3116 3.55479C22.5182 3.55479 21.871 4.2045 21.871 4.99746V8.44428C21.871 9.23756 22.5182 9.88578 23.3116 9.88578H26.9279C27.72 9.88578 28.3685 9.23756 28.3685 8.44428V4.99746C28.3685 4.2045 27.72 3.55479 26.9279 3.55479H23.3116ZM28.3823 13.5323H25.5667C25.8337 14.4043 25.9785 15.3239 25.9785 16.2799C25.9785 21.6007 21.5234 25.9162 16.0301 25.9162C10.5381 25.9162 6.08299 21.6007 6.08299 16.2799C6.08299 15.3239 6.22912 14.4043 6.49483 13.5323H3.55733V27.0504C3.55733 27.7504 4.12896 28.3199 4.82837 28.3199H27.1118C27.8118 28.3199 28.3823 27.7504 28.3823 27.0504V13.5323ZM16.0302 9.70402C12.4825 9.70402 9.60459 12.491 9.60459 15.9321C9.60459 19.3696 12.4825 22.1587 16.0302 22.1587C19.5798 22.1587 22.4578 19.3696 22.4578 15.9321C22.4578 12.4909 19.5798 9.70402 16.0302 9.70402Z" fill="white"/>
</svg>
